<?xml version="1.0" encoding="iso-8859-1"?>
<!-- Generator: Adobe Illustrator 18.0.0, SVG Export Plug-In . SVG Version: 6.00 Build 0)  -->
<!DOCTYPE svg PUBLIC "-//W3C//DTD SVG 1.1//EN" "http://www.w3.org/Graphics/SVG/1.1/DTD/svg11.dtd">
<svg version="1.1" id="Capa_1" xmlns="http://www.w3.org/2000/svg" xmlns:xlink="http://www.w3.org/1999/xlink" x="0px" y="0px"
	 viewBox="0 0 482.003 482.003" style="enable-background:new 0 0 482.003 482.003;" xml:space="preserve">
<path d="M456.692,134.427c-26.241-23.018-58.51-36.57-93.316-39.191c-25.378-1.913-50.287,2.131-73.312,11.755
	c16.272-12.095,34.957-20.577,55.229-24.897c30.501-6.499,61.578-2.989,89.864,10.154c4.259,1.979,9.313,0.13,11.29-4.127
	c1.979-4.257,0.131-9.312-4.126-11.29c-31.655-14.709-66.435-18.639-100.571-11.363c-22.896,4.879-43.996,14.483-62.323,28.219
	c28.939-32.734,72.092-51.178,117.212-47.935c4.667,0.349,8.751-3.186,9.088-7.868c0.336-4.683-3.187-8.751-7.869-9.088
	c-57.812-4.156-112.76,23.514-144.233,70.583c17.223-40.484,52.674-71.582,96.349-82.635c4.552-1.152,7.307-5.774,6.155-10.326
	c-1.151-4.55-5.772-7.309-10.325-6.155c-46.46,11.758-84.588,43.796-104.803,85.848C220.787,44.058,182.659,12.02,136.199,0.263
	c-4.552-1.151-9.174,1.604-10.326,6.155c-1.152,4.551,1.604,9.174,6.155,10.326c43.673,11.052,79.122,42.148,96.346,82.628
	c-31.47-47.066-86.407-74.733-144.23-70.576c-4.682,0.336-8.205,4.405-7.868,9.088c0.337,4.682,4.409,8.205,9.087,7.868
	c45.117-3.249,88.273,15.199,117.214,47.936c-18.328-13.737-39.427-23.341-62.323-28.22c-34.141-7.275-68.917-3.345-100.572,11.363
	c-4.257,1.978-6.105,7.033-4.127,11.29c1.978,4.258,7.034,6.105,11.29,4.127c28.286-13.143,59.36-16.653,89.866-10.154
	c20.272,4.32,38.957,12.802,55.23,24.899c-23.028-9.625-47.939-13.669-73.313-11.756c-34.808,2.621-67.076,16.173-93.316,39.191
	c-3.529,3.096-3.881,8.466-0.785,11.996c1.681,1.916,4.031,2.895,6.394,2.895c1.99,0,3.988-0.695,5.602-2.11
	c23.447-20.568,52.28-32.677,83.382-35.019c16.468-1.242,32.719,0.323,48.264,4.566c-11.113,2.63-21.916,6.745-32.184,12.351
	c-24.729,13.503-43.956,34.201-55.601,59.857c-1.94,4.274-0.048,9.313,4.227,11.253c1.14,0.517,2.333,0.762,3.508,0.762
	c3.232,0,6.322-1.854,7.745-4.989c10.11-22.272,26.801-40.241,48.269-51.963c17.653-9.639,37.114-14.264,56.923-13.643
	c0.638,0.364,1.276,0.729,1.91,1.103l4.428,34.64c-1.044,0.49-1.992,1.188-2.771,2.073c-1.614,1.833-2.361,4.272-2.051,6.694
	l4.823,37.73c-1.044,0.49-1.992,1.188-2.771,2.073c-1.614,1.833-2.361,4.272-2.051,6.694l4.823,37.73
	c-1.044,0.49-1.992,1.188-2.771,2.073c-1.614,1.833-2.361,4.272-2.051,6.694l4.823,37.73c-1.044,0.49-1.992,1.188-2.771,2.073
	c-1.614,1.833-2.361,4.272-2.051,6.694l4.719,36.92h-34.507c-4.694,0-8.5,3.806-8.5,8.5v32.971c0,4.694,3.806,8.5,8.5,8.5h4.808
	l8.304,73.184c0.487,4.296,4.122,7.542,8.446,7.542h93.33c4.323,0,7.958-3.246,8.445-7.542l8.305-73.184h4.802
	c4.694,0,8.5-3.806,8.5-8.5v-32.971c0-4.694-3.806-8.5-8.5-8.5h-34.506l4.719-36.92c0.31-2.422-0.438-4.861-2.052-6.694
	c-0.779-0.885-1.727-1.583-2.771-2.073l4.823-37.73c0.31-2.422-0.438-4.861-2.052-6.694c-0.779-0.885-1.727-1.583-2.771-2.073
	l4.823-37.73c0.31-2.422-0.438-4.861-2.052-6.694c-0.779-0.885-1.727-1.583-2.771-2.073l4.823-37.73
	c0.31-2.422-0.438-4.861-2.052-6.694c-0.779-0.885-1.727-1.583-2.771-2.073l4.428-34.64c0.634-0.374,1.271-0.739,1.91-1.103
	c19.812-0.621,39.272,4.005,56.923,13.643c21.468,11.722,38.158,29.691,48.268,51.963c1.423,3.135,4.513,4.989,7.745,4.989
	c1.175,0,2.369-0.245,3.508-0.762c4.275-1.94,6.168-6.979,4.228-11.253c-11.646-25.656-30.872-46.354-55.601-59.857
	c-10.268-5.606-21.071-9.721-32.186-12.351c15.546-4.245,31.797-5.809,48.266-4.566c31.102,2.342,59.935,14.451,83.382,35.019
	c1.614,1.415,3.612,2.11,5.603,2.11c2.362,0,4.713-0.979,6.393-2.895C460.572,142.893,460.221,137.523,456.692,134.427z
	 M220.656,275.311h40.691l-3.771,29.498h-33.15L220.656,275.311z M224.427,258.311l-3.771-29.498h40.691l-3.771,29.498H224.427z
	 M224.427,211.813l-3.771-29.498h40.691l-3.771,29.498H224.427z M224.427,165.316l-3.771-29.498h40.691l-3.771,29.498H224.427z
	 M280.079,465.003h-78.15l-7.231-63.726h92.611L280.079,465.003z M300.722,384.277h-119.44v-15.971h119.44V384.277z
	 M224.427,351.307l-3.771-29.498h40.691l-3.771,29.498H224.427z"/>
<g>
</g>
<g>
</g>
<g>
</g>
<g>
</g>
<g>
</g>
<g>
</g>
<g>
</g>
<g>
</g>
<g>
</g>
<g>
</g>
<g>
</g>
<g>
</g>
<g>
</g>
<g>
</g>
<g>
</g>
</svg>
