<svg id="Capa_1" data-name="Capa 1" xmlns="http://www.w3.org/2000/svg" viewBox="0 0 153.44 133.11"><title>plant-pot</title><path d="M369.58,342.31H336.43l-0.28-2.2c-5.7-.16-11.42-0.25-17.16-0.2l0.31,2.4H284.79a8.5,8.5,0,0,0-8.5,8.5v33a8.5,8.5,0,0,0,8.5,8.5h4.81l8.3,73.18a8.5,8.5,0,0,0,8.45,7.54h93.33a8.5,8.5,0,0,0,8.45-7.54l8.3-73.18h4.8a8.5,8.5,0,0,0,8.5-8.5v-33a8.5,8.5,0,0,0-8.5-8.5H386.72l0.08-.6c-5.71,0-11.4-.13-17.1-0.32ZM392.08,456H313.93l-7.23-63.73h92.61Zm20.64-96.7v16H293.28v-16H412.72Z" transform="translate(-276.29 -339.89)"/></svg>